<?xml version="1.0" encoding="UTF-8"?>
<svg width="34px" height="34px" viewBox="0 0 34 34" version="1.1" xmlns="http://www.w3.org/2000/svg" xmlns:xlink="http://www.w3.org/1999/xlink">
    <title>Group 4</title>
    <g id="Home" stroke="none" stroke-width="1" fill="none" fill-rule="evenodd">
        <g id="Home-(Menu---open---mobile)" transform="translate(-20.000000, -13.000000)">
            <g id="Group-4" transform="translate(20.000000, 13.000000)">
                <circle id="Oval" fill="#282828" cx="17" cy="17" r="17"></circle>
                <path d="M12.637505,10.6496456 L12.7709654,10.7674962 L17,14.9968333 L21.2290346,10.7674962 C21.7822774,10.2142534 22.6792611,10.2142534 23.2325038,10.7674962 C23.7431894,11.2781818 23.782473,12.0817591 23.3503544,12.637505 L23.2325038,12.7709654 L19.0031667,17 L23.2325038,21.2290346 C23.7857466,21.7822774 23.7857466,22.6792611 23.2325038,23.2325038 C22.7218182,23.7431894 21.9182409,23.782473 21.362495,23.3503544 L21.2290346,23.2325038 L17,19.0031667 L12.7709654,23.2325038 C12.2177226,23.7857466 11.3207389,23.7857466 10.7674962,23.2325038 C10.2568106,22.7218182 10.217527,21.9182409 10.6496456,21.362495 L10.7674962,21.2290346 L14.9968333,17 L10.7674962,12.7709654 C10.2142534,12.2177226 10.2142534,11.3207389 10.7674962,10.7674962 C11.2356246,10.2993677 11.9498635,10.2273479 12.4937183,10.5514369 L12.637505,10.6496456 Z" id="Combined-Shape" fill="#FFFFFF" fill-rule="nonzero"></path>
            </g>
        </g>
    </g>
</svg>