<?xml version="1.0" encoding="UTF-8"?>
<svg width="25px" height="17px" viewBox="0 0 25 17" version="1.1" xmlns="http://www.w3.org/2000/svg" xmlns:xlink="http://www.w3.org/1999/xlink">
    <title>Combined Shape</title>
    <g id="Symbols" stroke="none" stroke-width="1" fill="none" fill-rule="evenodd">
        <g id="nav/mobile" transform="translate(-20.000000, -22.000000)" fill="#FFFFFF">
            <g id="Group-3" transform="translate(20.000000, 22.000000)">
                <path d="M23.5,14 C24.3284271,14 25,14.6715729 25,15.5 C25,16.3284271 24.3284271,17 23.5,17 L1.5,17 C0.671572875,17 1.01453063e-16,16.3284271 0,15.5 C-1.01453063e-16,14.6715729 0.671572875,14 1.5,14 L23.5,14 Z M23.5,7 C24.3284271,7 25,7.67157288 25,8.5 C25,9.32842712 24.3284271,10 23.5,10 L1.5,10 C0.671572875,10 1.01453063e-16,9.32842712 0,8.5 C-1.01453063e-16,7.67157288 0.671572875,7 1.5,7 L23.5,7 Z M23.5,0 C24.3284271,-1.52179594e-16 25,0.671572875 25,1.5 C25,2.32842712 24.3284271,3 23.5,3 L1.5,3 C0.671572875,3 1.01453063e-16,2.32842712 0,1.5 C-1.01453063e-16,0.671572875 0.671572875,1.52179594e-16 1.5,0 L23.5,0 Z" id="Combined-Shape"></path>
            </g>
        </g>
    </g>
</svg>